<svg xmlns="http://www.w3.org/2000/svg" viewBox="0 0 64 64">
  <circle cx="32" cy="32" r="32" fill="#c2440a"/>
  <rect x="22" y="30" width="3.5" height="14" rx="1.5" fill="#ffd166"/>
  <rect x="28" y="26" width="3.5" height="18" rx="1.5" fill="#ffd166"/>
  <circle cx="38" cy="33" r="4.5" fill="#e8a33d"/>
  <path d="M18,42 L46,42 L43,54 L21,54 Z" fill="#fff3ea"/>
  <path d="M18,42 L46,42 L46,46 L18,46 Z" fill="#ffd166"/>
  <circle cx="26" cy="49" r="1.6" fill="#3d0f0f"/>
  <circle cx="36" cy="49" r="1.6" fill="#3d0f0f"/>
  <path d="M27,52.5 Q31,55 35,52.5" stroke="#3d0f0f" stroke-width="1.6" fill="none" stroke-linecap="round"/>
  <path d="M46,16 l1.6,3.6 3.9,0.4 -2.9,2.7 0.8,3.9 -3.4,-2 -3.4,2 0.8,-3.9 -2.9,-2.7 3.9,-0.4 Z" fill="#ffd166"/>
</svg>
